<svg width="170" height="172" viewBox="0 0 170 172" fill="none" xmlns="http://www.w3.org/2000/svg">
<path d="M0.224679 85.9932H43.559V87.3426L0 89.5169L0.224679 85.9932Z" fill="white"/>
<path d="M138.699 24.9657L108.71 59.7154L107.435 58.7033L135.4 22.2291L138.699 24.9657Z" fill="white"/>
<path d="M20.3547 29.8014L55.4418 58.8907L54.0923 60.6526L17.993 32.7253L20.3547 29.8014Z" fill="white"/>
<path d="M56.3789 114.033L22.6413 144.622L20.13 141.773L54.5796 112.421L56.3789 114.033Z" fill="white"/>
<path d="M35.8742 24.2534L63.2018 57.2039L61.8894 58.4408L32.8751 27.0649L35.8742 24.2534Z" fill="white"/>
<path d="M168.725 115.795L127.266 100.801L127.865 98.9639L170 112.271L168.725 115.795Z" fill="white"/>
<path d="M126.103 69.5745L167.338 52.4432L168.725 55.967L126.853 71.4113L126.103 69.5745Z" fill="white"/>
<path d="M106.086 48.6198L127.266 8.50952L130.564 10.2714L108.073 49.6319L106.086 48.6198Z" fill="white"/>
<path d="M113.583 161.003L100.575 123.292L102.225 122.617L117.594 159.504L113.583 161.003Z" fill="white"/>
<path d="M110.022 121.905C117.969 134.401 125.904 146.896 133.826 159.392L130.639 161.416L108.148 123.292L110.022 121.905Z" fill="white"/>
<path d="M17.6935 125.316L54.2426 104.437L55.2548 106.086L19.9801 128.803L17.6935 125.316Z" fill="white"/>
<path d="M71.5986 171.012L79.5082 128.128L81.1949 128.39L75.3848 171.462L71.5986 171.012Z" fill="white"/>
<path d="M76.8839 40.4477L68.0372 0.787179L71.7859 0C75.9468 13.0827 75.197 27.3275 76.8839 40.4477Z" fill="white"/>
<path d="M165.501 72.4608L122.955 79.4333L122.692 78.0088L164.677 68.4124L165.501 72.4608Z" fill="white"/>
<path d="M73.8477 127.641C70.0991 138.886 66.6879 150.432 63.0892 161.791L59.3406 160.516L71.8609 127.003L73.8477 127.641Z" fill="white"/>
<path d="M45.3958 80.2956L7.90955 75.6473L8.54652 71.4114L45.6955 78.4588L45.3958 80.2956Z" fill="white"/>
<path d="M125.841 105.711L158.079 122.805L156.167 126.291L124.754 107.735L125.841 105.711Z" fill="white"/>
<path d="M122.58 90.1545L157.855 94.3156L157.292 98.0642L122.43 91.5415L122.58 90.1545Z" fill="white"/>
<path d="M86.8178 6.63513V40.6352H84.981L83.2192 6.71018L86.8178 6.63513Z" fill="white"/>
<path d="M88.355 118.606L90.6791 156.505H87.4553V118.606H88.355Z" fill="white"/>
<path d="M132.889 140.048L110.809 114.071L112.121 112.908L136.037 137.499L132.889 140.048Z" fill="white"/>
<path d="M62.3767 19.193L72.4983 47.9075L70.8862 48.5447L58.7031 20.43L62.3767 19.193Z" fill="white"/>
<path d="M48.8442 66.6505L23.2788 53.6802L25.003 50.4939L49.8939 64.7386L48.8442 66.6505Z" fill="white"/>
<path d="M148.333 49.7816L125.017 63.3516L123.854 61.6647L146.346 46.6702L148.333 49.7816Z" fill="white"/>
<path d="M60.3152 121.98L43.9712 142.972L41.1973 140.798L58.3658 120.406L60.3152 121.98Z" fill="white"/>
<path d="M17.131 98.4764L41.8718 94.278L42.3216 96.2272L17.9931 102.225L17.131 98.4764Z" fill="white"/>
<path d="M111.034 18.7056L101.25 44.9459L99.3385 44.3461L107.548 17.6935L111.034 18.7056Z" fill="white"/>
</svg>
